<?xml version="1.0" encoding="utf-8"?>
<!-- Generator: Adobe Illustrator 16.0.0, SVG Export Plug-In . SVG Version: 6.00 Build 0)  -->
<!DOCTYPE svg PUBLIC "-//W3C//DTD SVG 1.1//EN" "http://www.w3.org/Graphics/SVG/1.1/DTD/svg11.dtd">
<svg version="1.1" id="Layer_1" xmlns="http://www.w3.org/2000/svg" xmlns:xlink="http://www.w3.org/1999/xlink" x="0px" y="0px"
	 width="70px" height="70px" viewBox="0 0 70 70" enable-background="new 0 0 70 70" xml:space="preserve">
<g>
	<defs>
		<filter id="Adobe_OpacityMaskFilter" filterUnits="userSpaceOnUse" x="0" y="0" width="70" height="70">
			<feColorMatrix  type="matrix" values="1 0 0 0 0  0 1 0 0 0  0 0 1 0 0  0 0 0 1 0"/>
		</filter>
	</defs>
	<mask maskUnits="userSpaceOnUse" x="0" y="0" width="70" height="70" id="icon-b">
		<g filter="url(#Adobe_OpacityMaskFilter)">
			<path id="icon-a" fill="#FFFFFF" d="M4,0h61c4,0,5,1,5,5v60c0,4-1,5-5,5H4c-3,0-4-1-4-5V5C0,1,1,0,4,0z"/>
		</g>
	</mask>
	<g mask="url(#icon-b)">
		<path fill="#3C5A99" d="M0,0h70v70H0V0z"/>
		<path fill="#FFFFFF" fill-opacity="0.383" d="M4,1h61c2.667,0,4.333,0.667,5,2V0H0v3C0.667,1.667,2,1,4,1z"/>
		<path opacity="0.165" enable-background="new    " d="M26.375,11.5l9.25,1.125L54,18.25l4,6.11v19.558L33.423,69H4.006
			C2.003,69,0,68.854,0,64.911V38.064l12.348-14L26.375,11.5z"/>
		<path fill-opacity="0.383" d="M4,69h61c2.667,0,4.333-1,5-3v4H0v-4C0.667,68,2,69,4,69z"/>
		<g display="none">
			<g id="Layer_1_1_" display="inline">
				<path fill="#FFFFFF" d="M35,8.281C20.246,8.281,8.281,20.246,8.281,35S20.246,61.719,35,61.719S61.719,49.754,61.719,35
					S49.754,8.281,35,8.281z M35,19.297c4.301,0,7.793,3.492,7.793,7.793c0,4.301-3.492,7.793-7.793,7.793s-7.793-3.492-7.793-7.793
					C27.207,22.789,30.699,19.297,35,19.297z M47.598,46.156c0,2.496-2.039,4.535-4.535,4.535H26.938
					c-2.496,0-4.535-2.039-4.535-4.535v-9.609c0-2.496,2.039-4.535,4.535-4.535h0.375c1.582,2.578,4.43,4.3,7.676,4.3
					s6.094-1.727,7.676-4.3h0.375c2.496,0,4.535,2.039,4.535,4.535v9.609H47.598z"/>
			</g>
			<g id="Layer_2" display="inline">
				<g>
					<path fill="#FFFFFF" d="M47.984,8.398H15.289c-3.223,0-5.859,2.637-5.859,5.859v41.484c0,3.223,2.637,5.858,5.859,5.858h32.695
						c3.223,0,5.854-2.641,5.854-5.858V14.258C53.844,11.035,51.207,8.398,47.984,8.398z M31.637,19.297
						c4.3,0,7.792,3.492,7.792,7.793c0,4.301-3.492,7.793-7.792,7.793c-4.301,0-7.793-3.492-7.793-7.793
						C23.844,22.789,27.324,19.297,31.637,19.297z M44.234,46.156c0,2.496-2.039,4.535-4.535,4.535H23.574
						c-2.496,0-4.535-2.039-4.535-4.535v-9.609c0-2.496,2.039-4.535,4.535-4.535h0.375c1.582,2.578,4.43,4.3,7.676,4.3
						s6.094-1.727,7.676-4.3h0.375c2.496,0,4.535,2.039,4.535,4.535v9.609H44.234z"/>
					<g>
						<g>
							<g>
								<g>
									<rect id="SVGID_2_" x="53.375" y="18.242" fill="#FFFFFF" width="7.207" height="32.227"/>
								</g>
								<g>
									<g>
										<g>
											<g>
												<defs>
													<rect id="SVGID_1_" x="53.375" y="18.242" width="7.207" height="32.227"/>
												</defs>
												<clipPath id="SVGID_3_">
													<use xlink:href="#SVGID_1_"  overflow="visible"/>
												</clipPath>
												<g clip-path="url(#SVGID_3_)">
													<path fill="#FFFFFF" d="M59.41,19.063h-8.438c-0.646,0-1.177,0.527-1.177,1.172v5.391c0,0.645,0.526,1.172,1.177,1.172
														h8.438c0.645,0,1.172-0.527,1.172-1.172v-5.391C60.582,19.59,60.055,19.063,59.41,19.063z"/>
													<path fill="#FFFFFF" d="M56.188,42.266H47.75c-0.645,0-1.172,0.527-1.172,1.172v5.396c0,0.646,0.527,1.172,1.172,1.172
														h8.438c0.646,0,1.172-0.522,1.172-1.172v-5.396C57.359,42.793,56.832,42.266,56.188,42.266z"/>
													<path fill="#FFFFFF" d="M58.18,30.664h-8.438c-0.645,0-1.172,0.527-1.172,1.172v5.391c0,0.646,0.527,1.172,1.172,1.172
														h8.438c0.646,0,1.172-0.522,1.172-1.172v-5.391C59.352,31.191,58.824,30.664,58.18,30.664z"/>
												</g>
											</g>
										</g>
									</g>
								</g>
							</g>
						</g>
					</g>
				</g>
			</g>
			<g id="Layer_3" display="inline">
				<g>
					<path fill="#FFFFFF" d="M60.664,17.539h-2.402c-0.375,2.578-2.59,4.57-5.273,4.57c-2.682,0-4.905-1.992-5.271-4.57h-25.43
						c-0.375,2.578-2.59,4.57-5.273,4.57c-2.683,0-4.91-1.992-5.273-4.57H9.336c-0.645,0-1.172,0.527-1.172,1.172v37.734
						c0,0.645,0.527,1.172,1.172,1.172h51.328c0.645,0,1.172-0.527,1.172-1.172V18.711C61.836,18.066,61.309,17.539,60.664,17.539z
						 M23.281,25.508c3.305,0,5.988,2.684,5.988,5.988c0,3.304-2.684,5.988-5.988,5.988c-3.304,0-5.988-2.688-5.988-5.988
						C17.293,28.192,19.977,25.508,23.281,25.508z M32.961,46.156c0,1.922-1.57,3.492-3.492,3.492H17.082
						c-1.922,0-3.492-1.57-3.492-3.492v-7.383c0-1.922,1.57-3.492,3.492-3.492h0.293c1.219,1.979,3.398,3.305,5.906,3.305
						c2.508,0,4.688-1.324,5.906-3.305h0.293c1.922,0,3.492,1.57,3.492,3.492v7.383H32.961z M56.328,45.781
						c0,0.645-0.527,1.172-1.172,1.172H36.992c-0.645,0-1.172-0.527-1.172-1.172v-0.82c0-0.645,0.527-1.172,1.172-1.172h18.164
						c0.645,0,1.172,0.527,1.172,1.172V45.781z M56.328,38.164c0,0.645-0.527,1.172-1.172,1.172H36.992
						c-0.645,0-1.172-0.527-1.172-1.172v-0.82c0-0.645,0.527-1.172,1.172-1.172h18.164c0.645,0,1.172,0.527,1.172,1.172V38.164z
						 M56.328,30.547c0,0.645-0.527,1.172-1.172,1.172H36.992c-0.645,0-1.172-0.527-1.172-1.172v-0.82
						c0-0.645,0.527-1.172,1.172-1.172h18.164c0.645,0,1.172,0.527,1.172,1.172V30.547z"/>
					<path fill="#FFFFFF" d="M17.012,12.383c-2.367,0-4.277,1.91-4.277,4.277c0,2.367,1.91,4.277,4.277,4.277
						c2.367,0,4.277-1.91,4.277-4.277C21.289,14.293,19.379,12.383,17.012,12.383z M17.012,19.414c-1.523,0-2.754-1.23-2.754-2.754
						c0-1.524,1.23-2.754,2.754-2.754c1.524,0,2.754,1.229,2.754,2.754C19.766,18.184,18.535,19.414,17.012,19.414z"/>
					<path fill="#FFFFFF" d="M53.105,12.383c-2.367,0-4.277,1.91-4.277,4.277c0,2.367,1.91,4.277,4.277,4.277
						s4.272-1.91,4.272-4.277C57.382,14.293,55.473,12.383,53.105,12.383z M53.105,19.414c-1.523,0-2.754-1.23-2.754-2.754
						c0-1.524,1.229-2.754,2.754-2.754c1.521,0,2.754,1.229,2.754,2.754C55.859,18.184,54.629,19.414,53.105,19.414z"/>
				</g>
			</g>
			<g id="Layer_4" display="inline">
				<g>
					<path fill="#FFFFFF" d="M46.883,26.41h-7.5c-0.48,0-0.879,0.398-0.879,0.879l0,0c0,0.48,0.398,0.879,0.879,0.879h7.5
						c0.48,0,0.879-0.398,0.879-0.879l0,0C47.762,26.797,47.363,26.41,46.883,26.41z"/>
					<path fill="#FFFFFF" d="M46.883,23.199h-7.5c-0.48,0-0.879,0.398-0.879,0.879s0.398,0.879,0.879,0.879h7.5
						c0.48,0,0.879-0.398,0.879-0.879S47.363,23.199,46.883,23.199z"/>
					<path fill="#FFFFFF" d="M35,8.281C20.246,8.281,8.281,20.246,8.281,35S20.246,61.719,35,61.719S61.719,49.754,61.719,35
						S49.754,8.281,35,8.281z M28.086,27.734c3.34,0,6.047,2.707,6.047,6.047c0,3.34-2.707,6.047-6.047,6.047
						s-6.047-2.707-6.047-6.047C22.039,30.441,24.746,27.734,28.086,27.734z M37.871,48.582c0,1.934-1.582,3.527-3.527,3.527H21.828
						c-1.934,0-3.527-1.582-3.527-3.527v-7.465c0-1.934,1.582-3.527,3.527-3.527h0.293c1.23,2.004,3.434,3.34,5.965,3.34
						c2.531,0,4.734-1.336,5.965-3.34h0.293c1.933,0,3.527,1.582,3.527,3.527V48.582z M52.508,26.527c0,2.098-1.488,3.82-3.305,3.82
						h-7.277l-7.02,2.777l2.098-2.789h0.047c-1.816,0-3.305-1.723-3.305-3.82v-4.84c0-2.098,1.488-3.82,3.305-3.82h12.152
						c1.816,0,3.305,1.723,3.305,3.82V26.527z"/>
					<path fill="#FFFFFF" d="M46.883,20h-7.5c-0.48,0-0.879,0.398-0.879,0.879s0.398,0.879,0.879,0.879h7.5
						c0.48,0,0.879-0.398,0.879-0.879S47.363,20,46.883,20z"/>
				</g>
			</g>
			<g id="Layer_5" display="inline">
				<path fill="#FFFFFF" d="M34.883,8.164c-14.754,0-26.719,11.965-26.719,26.719s11.965,26.719,26.719,26.719
					s26.719-11.965,26.719-26.719S49.637,8.164,34.883,8.164z M29.445,22.203c3.984,0,7.219,3.234,7.219,7.219
					c0,3.985-3.234,7.219-7.219,7.219c-3.985,0-7.219-3.229-7.219-7.219C22.226,25.437,25.461,22.203,29.445,22.203z M41.105,47.082
					c0,2.309-1.892,4.207-4.207,4.207H21.98c-2.309,0-4.207-1.887-4.207-4.207v-8.895c0-2.313,1.887-4.208,4.207-4.208h0.352
					c1.465,2.391,4.102,3.984,7.113,3.984c3.011,0,5.648-1.594,7.114-3.984h0.354c2.312,0,4.207,1.887,4.207,4.208v8.895H41.105z
					 M49.344,29.129v5.988h-2.801v-5.988h-5.988v-2.801h5.988v-5.977h2.801v5.988h5.988v2.801h-5.988V29.129z"/>
			</g>
			<g id="Layer_6" display="inline">
				<path fill="#FFFFFF" d="M35,8.281C20.246,8.281,8.281,20.246,8.281,35S20.246,61.719,35,61.719S61.719,49.754,61.719,35
					S49.754,8.281,35,8.281z M29.563,22.32c3.984,0,7.219,3.234,7.219,7.219s-3.234,7.219-7.219,7.219s-7.219-3.234-7.219-7.219
					S25.578,22.32,29.563,22.32z M41.223,47.199c0,2.309-1.887,4.207-4.207,4.207H22.098c-2.309,0-4.207-1.887-4.207-4.207v-8.895
					c0-2.313,1.887-4.208,4.207-4.208h0.352c1.465,2.39,4.102,3.984,7.113,3.984c3.011,0,5.648-1.596,7.113-3.984h0.352
					c2.313,0,4.207,1.886,4.207,4.208v8.895H41.223z M40.742,29.258v-2.813h14.297v2.813H40.742z"/>
			</g>
			<g id="Layer_7" display="inline">
				<path fill="#FFFFFF" d="M35,8.281C20.246,8.281,8.281,20.246,8.281,35S20.246,61.719,35,61.719S61.719,49.754,61.719,35
					S49.754,8.281,35,8.281z M29.563,22.32c3.984,0,7.219,3.234,7.219,7.219s-3.234,7.219-7.219,7.219s-7.219-3.234-7.219-7.219
					S25.578,22.32,29.563,22.32z M41.223,47.199c0,2.309-1.887,4.207-4.207,4.207H22.098c-2.309,0-4.207-1.887-4.207-4.207v-8.895
					c0-2.313,1.887-4.208,4.207-4.208h0.352c1.465,2.39,4.102,3.984,7.113,3.984c3.011,0,5.648-1.596,7.113-3.984h0.352
					c2.313,0,4.207,1.886,4.207,4.208v8.895H41.223z M48.219,33.031l-1.992,1.992l-1.992-1.992l-4.805-4.805l1.992-1.992
					l4.805,4.805l8.121-8.121l1.992,1.992L48.219,33.031z"/>
			</g>
			<g id="Layer_8" display="inline">
				<g>
					<path fill="#FFFFFF" d="M35,8.281C20.246,8.281,8.281,20.246,8.281,35S20.246,61.719,35,61.719S61.719,49.754,61.719,35
						S49.754,8.281,35,8.281z M44.926,17.07c3.023,0,5.473,2.449,5.473,5.473s-2.444,5.473-5.473,5.473
						c-3.023,0-5.473-2.449-5.473-5.473S41.902,17.07,44.926,17.07z M40.461,36.605c0,3.021-2.449,5.473-5.473,5.473
						s-5.473-2.449-5.473-5.473c0-3.024,2.449-5.478,5.473-5.478S40.461,33.582,40.461,36.605z M25.074,17.07
						c3.023,0,5.473,2.449,5.473,5.473s-2.449,5.473-5.473,5.473c-3.024,0-5.473-2.449-5.473-5.473S22.051,17.07,25.074,17.07z
						 M16.238,35.914v-6.738c0-1.746,1.43-3.188,3.188-3.188h0.27c1.113,1.816,3.105,3.023,5.391,3.023s4.277-1.207,5.391-3.023
						h0.27c1.746,0,3.188,1.43,3.188,3.188v1.289c-2.953,0.504-5.203,3.07-5.203,6.141c0,0.896,0.188,1.734,0.527,2.496h-9.844
						C17.668,39.102,16.238,37.672,16.238,35.914z M43.836,49.742c0,1.746-1.43,3.188-3.188,3.188H29.34
						c-1.746,0-3.188-1.43-3.188-3.188v-6.738c0-1.746,1.43-3.188,3.188-3.188h0.27c1.113,1.813,3.105,3.021,5.391,3.021
						s4.276-1.207,5.392-3.021h0.271c1.746,0,3.188,1.43,3.188,3.188v6.738H43.836z M53.762,35.914c0,1.746-1.43,3.188-3.188,3.188
						h-9.82c0.34-0.762,0.527-1.604,0.527-2.496c0-3.082-2.25-5.637-5.203-6.141v-1.289c0-1.746,1.43-3.188,3.188-3.188h0.271
						c1.111,1.816,3.104,3.023,5.391,3.023s4.277-1.207,5.393-3.023h0.271c1.746,0,3.188,1.43,3.188,3.188v6.738H53.762z"/>
				</g>
			</g>
		</g>
	</g>
</g>
<circle fill="#FFFFFF" cx="35" cy="35" r="26.5"/>
<g>
	<path fill-rule="evenodd" clip-rule="evenodd" d="M38.526,48.884c-2.715,0-5.43,0.004-8.146,0
		c-1.375-0.003-2.229-0.741-2.217-1.896c0.014-1.122,0.856-1.849,2.176-1.85c5.458-0.004,10.917-0.004,16.375,0
		c1.324,0.001,2.161,0.725,2.172,1.852c0.013,1.159-0.837,1.891-2.216,1.894C43.957,48.888,41.241,48.884,38.526,48.884z"/>
	<path fill-rule="evenodd" clip-rule="evenodd" d="M29.606,22.367c2.432,0,4.863-0.005,7.294,0.001
		c1.298,0.003,2.145,0.767,2.128,1.895c-0.016,1.096-0.849,1.845-2.095,1.846c-4.948,0.005-9.896,0.006-14.843,0
		c-1.247-0.001-2.074-0.754-2.083-1.855c-0.009-1.104,0.817-1.878,2.05-1.884C24.574,22.359,27.09,22.367,29.606,22.367z"/>
	<path fill-rule="evenodd" clip-rule="evenodd" d="M30.567,41.283c-1.78,0.001-3.56,0.009-5.34-0.002
		c-1.331-0.008-2.157-0.729-2.161-1.854c-0.003-1.127,0.836-1.891,2.141-1.895c3.56-0.013,7.12-0.014,10.68,0
		c1.286,0.004,2.141,0.801,2.123,1.917c-0.018,1.089-0.841,1.82-2.104,1.83C34.126,41.293,32.347,41.283,30.567,41.283z"/>
	<path fill-rule="evenodd" clip-rule="evenodd" d="M35.121,33.721c-2.516,0-5.033,0.012-7.549-0.005
		c-1.419-0.009-2.348-1.03-2.097-2.251c0.187-0.913,0.917-1.491,1.982-1.497c2.544-0.016,5.089-0.007,7.633-0.007
		c2.602,0,5.203,0.003,7.803,0.003c0.781,0,1.472,0.321,1.68,1.046c0.161,0.56,0.109,1.287-0.115,1.828
		c-0.312,0.749-1.096,0.889-1.873,0.887C40.098,33.717,37.609,33.721,35.121,33.721z M35.135,32.74c2.458,0,4.919,0.002,7.379,0
		c0.91-0.001,1.352-0.309,1.305-0.939c-0.059-0.792-0.629-0.902-1.277-0.901c-4.948,0.003-9.896,0.002-14.845,0
		c-0.65,0-1.245,0.124-1.255,0.916c-0.01,0.792,0.562,0.933,1.228,0.93C30.158,32.733,32.646,32.74,35.135,32.74z"/>
</g>
</svg>
